<?xml version="1.0" standalone="no"?>
<!DOCTYPE svg PUBLIC "-//W3C//DTD SVG 20010904//EN"
 "http://www.w3.org/TR/2001/REC-SVG-20010904/DTD/svg10.dtd">
<svg version="1.0" xmlns="http://www.w3.org/2000/svg"
 width="160.000000pt" height="160.000000pt" viewBox="0 0 160.000000 160.000000"
 preserveAspectRatio="xMidYMid meet">
<metadata>
Created by potrace 1.14, written by Peter Selinger 2001-2017
</metadata>
<g transform="translate(0.000000,160.000000) scale(0.100000,-0.100000)"
fill="#000000" stroke="none">
<path d="M913 1505 c-61 -17 -138 -54 -173 -84 -17 -14 -3 -10 40 13 89 47
160 66 250 66 123 0 223 -38 313 -119 49 -44 99 -110 91 -122 -3 -5 -1 -9 4
-9 10 0 36 -55 56 -120 9 -29 14 -37 15 -22 2 37 -38 142 -75 199 -112 168
-328 250 -521 198z"/>
<path d="M480 1125 c-25 -46 -19 -206 9 -280 13 -33 29 -79 35 -102 9 -37 14
-43 37 -43 14 0 35 -10 47 -23 22 -24 30 -57 13 -57 -5 0 -11 -7 -13 -17 -2
-12 -17 -4 -59 35 -62 57 -95 65 -139 36 -44 -29 -301 -287 -346 -348 -34 -44
-44 -67 -44 -95 0 -67 87 -170 175 -207 60 -25 97 1 296 202 97 99 182 190
188 203 8 13 10 37 7 56 -5 25 -3 34 10 39 28 11 47 7 129 -26 71 -28 92 -31
180 -31 114 -1 232 28 281 69 l29 24 -37 -15 c-59 -24 -57 -18 8 21 32 19 72
48 89 65 l30 29 -50 -19 c-28 -10 -77 -31 -109 -46 -82 -39 -187 -52 -278 -37
-143 25 -295 136 -365 268 -28 54 -38 82 -58 168 -5 23 -9 26 -15 16 -12 -19
-17 -4 -27 79 l-8 64 -15 -28z m-22 -553 c3 -19 -29 -56 -161 -188 -179 -179
-215 -200 -200 -119 4 21 49 74 157 183 125 127 155 152 176 150 17 -2 26 -10
28 -26z m222 -26 c0 -11 -19 -15 -25 -6 -3 5 1 10 9 10 9 0 16 -2 16 -4z"/>
</g>
</svg>
